<svg xmlns="http://www.w3.org/2000/svg" version="1" viewBox="0 0 932 595">
  <path d="M206.5 5.2c-4.4 5.2-16.7 30.2-27.6 56.3-10.5 25-14.6 34.4-21.3 49.7-3.1 6.9-8.1 19.3-11 27.5-6.5 17.8-21.6 57.5-29.3 76.8-7.8 19.8-26 74.7-33.8 102.5-3.7 12.9-9.1 31.1-12 40.5-2.9 9.3-10 35-15.8 57-12.3 46.8-14.3 53.2-37.3 122.5C8.8 566.9 1 591.3 1 592.3c0 2.8 2.7 2 3.4-1.1.4-1.5 8.5-26.3 18.1-55.2 21.3-64.2 24.8-75.5 32.4-104.6C68.4 379.7 70.3 372.8 75 358c2.7-8.5 7.8-25.9 11.4-38.5 7.8-27.4 25.3-80.6 33.2-100.7 7.5-19.2 20-52 28.6-75.3 3.9-10.5 9.5-24.6 12.5-31.5 3.1-6.9 8-18.4 11-25.5 3-7.2 8-18.9 11-26C197.2 26.2 209.1 4 213 4c2.5 0 7.6 7.1 16.5 22.5 3.7 6.6 17.8 30.3 31.2 52.7 27.4 45.8 32.9 56.6 47.4 92.4 6 15 8.4 18 14.6 19 8.7 1.3 21.3-1.4 80.8-17.3 29.1-7.7 50.1-10.3 84-10.3 27 0 33.4.6 50.4 5 25.6 6.5 56.8 23.2 76.4 40.8 12.5 11.2 14.4 11.7 31.8 7.8 14.2-3.2 23.3-7 41.9-17.3 36.7-20.3 58.4-36.3 113-82.9 27.5-23.4 49.1-41.2 71.4-58.8 23.3-18.3 38.4-31.5 46.5-40.5 4-4.4 7.7-8.1 8.2-8.1 2.3 0 .2 46.3-4.2 90-4 40.8-5.3 50.8-10 75.5-3.9 20.5-6.9 39-18.4 113-3.1 19.8-8.1 49.5-11.1 66-6.5 35.8-12.6 73-15.4 95-1.1 8.8-3.3 24.1-4.7 34-4.9 32.6-3.2 65.4 3.5 68 2.4.9 2.7-.3.9-3.5-2.1-3.5-4.7-19.9-4.7-29.5 0-3.9.9-13.5 1.9-21.5 1.1-8 3.3-25.1 5.1-38 4.1-31.5 8.9-61.8 16.1-101.2 3.2-18 8.4-48.6 11.4-68 12-76.8 14.7-93.1 18.5-113.3 5.4-28.6 8.2-51.8 12.6-100.8 2-22.6 3.1-72.7 1.6-72.7-.6 0-7.9 6.9-16.4 15.4-10.3 10.3-22.6 21.2-37.8 33.2-29 23-51.7 41.6-76 62.4-30.4 25.9-36.5 30.9-51.5 42.6-17.6 13.7-34.2 25-51.3 34.8-27.5 15.8-40 21.1-57.3 24.2-10.6 2-12.8 1.4-20.4-5.6-11.1-10.2-29.7-23-43-29.7-11.2-5.7-29-12.2-41.5-15.3-11-2.8-15.1-3.3-33.9-4-41.6-1.7-65.9 1.3-112.5 13.9-42.3 11.5-50.8 13.3-62.3 13.3-4.3 0-7-.5-7.9-1.4-.8-.8-4.6-8.8-8.3-17.9-10.8-25.7-17.9-41.7-20.8-46.8-1.5-2.5-12.9-21.7-25.3-42.6-12.5-20.9-26.2-44.1-30.5-51.5-9.8-16.9-14.9-24.6-17-25.4-3.9-1.4-6.4-.5-10 3.6z"/>
  <path d="M444.6 225.8c-1.3 2.2 4.3 10.9 11.1 17.2 7.7 7 22.4 14.7 33.3 17.6 13.2 3.3 29.7.1 40-7.9 3-2.4 7-5.2 8.8-6.2 3.3-2 3.4-2 4.8-.1 2.8 3.8.6 25.6-3.6 37-2.6 6.8-8.7 12.6-17.8 16.9-5.9 2.7-7.9 3.1-17.8 3.5-20.4.8-32.5-3.8-45.2-17.2-5-5.4-7.7-9.5-11.9-18.3-3-6.2-5.9-11.3-6.5-11.3-3.3 0 5.9 19.9 13.5 29.1 8.4 10.1 18 16.4 29.4 19.4 9.1 2.4 27.5 2.1 35.4-.5 11-3.7 20.2-11.2 23.7-19.2 2.2-5.1 5.2-23 5.2-30.7 0-8.9-1.5-12.5-5.2-12.9-2.7-.3-4.8.9-15.8 8.7-7.1 5.1-15.2 7.4-26 7.4-7.2.1-9.9-.5-17.2-3.2-14.6-5.4-27-14.1-31.8-22.1-4-6.7-5.6-8.5-6.4-7.2zM604.2 233.3c-1.7 1.8-2.7 5-3.8 11.8-1.3 7.7-2.1 10-4.4 12.4-6.8 7.3-14 19-18.1 29.2-4 10-4.3 11.6-4.7 22.3-.7 18.2 1.9 25.9 12.2 36.9 10.1 10.6 23.3 17.5 32.5 16.9 4.3-.3 4.6-.5 4.9-3.3.3-2.1-1.9-7.3-7.8-19-12.4-24.6-15.7-40.8-14.2-69.4l.9-15.5 3.2-2.6c3.2-2.7 4.1-5 1.8-5-.7 0-1.8.5-2.5 1.2-1.5 1.5-1.5.6-.1-6.4.6-2.9 1.8-6.4 2.6-7.7 2.1-3.3.2-4.7-2.5-1.8zm-6.7 47.4c0 17.4.3 21 2.4 29.3 3.5 14 6.7 22.3 13.1 34 7.2 13.1 7.7 14.6 5 15.5-2.3.7-12.1-1.9-15.9-4.3-20.1-12.6-26.8-24.6-25.9-45.9.4-9.4 1-12 4.2-20.2 2-5.2 4.6-11.1 5.8-13 2-3.3 10.7-15.1 11.1-15.1.1 0 .2 8.9.2 19.7zM348.6 233.9c-.6 1 1.6 3.1 6.1 5.6 2.3 1.4 2.9 2.2 2.2 3.1-1.1 1.4-.6 1.8 3.2 2.7 3.9 1 7.1 9 7.7 19.7.4 7.3.1 9.6-2.2 16.5-1.5 4.4-4.5 11.1-6.8 14.9-4.7 8-15.7 19.9-22.8 24.7-8.8 6-7.9 8.4 2.7 7.5 15.1-1.2 42.4-12.6 47.1-19.6 3.7-5.5 5.2-12.4 5.2-24.2 0-6-.5-13-1.1-15.5-1.9-7.4-13.3-18.4-33.1-32.1-6.5-4.4-7.3-4.7-8.2-3.3zm27.8 22.4c8.8 7.6 10.8 11.9 11.4 24.4.5 11.6-.8 19.5-4.1 25.5-2.3 4.2-11.6 9.6-24.7 14.3-7.8 2.7-21.8 6-22.6 5.2-.2-.2 2-2.3 5-4.6 11.8-9.1 22.2-23.7 27.2-38.2 3-8.7 3.4-20.5 1.1-28.1-1.8-5.7-1.5-5.6 6.7 1.5zM621 425.9c-24.8 4.6-56.5 20.3-77.1 38.3-4 3.4-5.1 5-4.3 5.8.8.8 2.4 0 6-3.1 14.3-12.4 27-20.1 48.6-29.3 29.6-12.6 55.7-13.6 88.1-3.6 8.4 2.7 9.6 3.3 8.8 4.8-.9 1.8-3.7 12.2-6.7 25.2-.9 4.1-2.8 10.2-4.1 13.5-1.4 3.3-3.1 8.2-4 11-.8 2.7-1.9 5.4-2.3 5.9-1.6 1.6-7.2-12.5-15.8-39.4-5-15.8-9.3-26-10.8-26-.8 0-1.4.3-1.4.6 0 .4 2 6.1 4.4 12.8 2.5 6.7 5.2 14.6 6.1 17.6 4.8 16.1 12.3 35.3 14.9 37.8 2.4 2.5 4.8.5 7-5.9 1-3 3.1-8.7 4.8-12.7 1.6-4 3.7-11.4 4.8-16.5 1.1-5 2.3-10.6 2.8-12.2.6-1.7 1.5-4.9 2.2-7.3.7-2.3 1.8-4.2 2.4-4.2 2.1 0 16.1 8.8 24.2 15.3 4.6 3.7 11.4 10.6 16 16.2 4.3 5.4 8.5 10 9.2 10.3 2.4.7 1.1-2.4-2.9-7.3-2.3-2.8-5.5-6.9-7.2-9.3-5.1-7.1-26.3-23.3-35.5-27.1-2-.8-3.2-2.1-3.2-3.2 0-2-2.6-2.7-3.2-.9-.2.7-2.6.3-6.3-1-20.8-7.3-45.9-9.6-65.5-6.1zM286.2 427.5c-22.2 3.4-41.1 10.8-55.7 21.7-15.8 11.9-48.5 47.7-48.5 53 0 3 1.8 2 5.1-3 9.2-13.5 32.9-38.1 45.8-47.6 22.4-16.4 50.8-23.7 86.6-22.3 23.3 1 31 2.6 62 13.4 23.6 8.1 26.5 9.6 34 17.2 3.3 3.4 6.5 6.1 7.2 6.1 2.9 0 .9-3.2-6.1-9.7-8.3-7.8-10.6-8.8-42.6-19.6-24.8-8.4-32.6-9.8-57.5-10.2-15-.3-23.7 0-30.3 1z"/>
  <path d="M353 446.3c0 25.9-6.6 57.7-11.5 55-.8-.5-4-4.2-7.1-8.3-3.2-4.1-6.3-7.9-7-8.3-.8-.4-3.5-3.8-6.1-7.5-10.9-15.5-26.5-33.2-29.3-33.2-2.3 0-.6 2.7 6.3 9.9 3.9 4.2 10.6 12.1 14.7 17.6 4.1 5.5 9.5 12.2 12 15 2.5 2.7 6.5 7.8 9 11.3 6.4 9 9.9 9.3 14 1.2 4.5-8.9 8-31.1 8-51.2 0-10.7-.2-12.8-1.5-12.8-1.2 0-1.5 1.9-1.5 11.3z"/>
</svg>
