<svg xmlns="http://www.w3.org/2000/svg" width="1005.333" height="782.667" version="1" viewBox="0 0 754 587">
  <path d="M525.3 2.2c-.5.7-1.9 4.7-3.2 8.8-1.3 4.1-4.3 11.8-6.6 17-2.4 5.2-6.6 16.7-9.5 25.5-5.7 17.3-10 28-18 45-2.9 6-9.9 22.9-15.7 37.5-5.7 14.6-12.6 31-15.4 36.6-8.2 16.8-21.3 36.7-26.4 40-2.4 1.5-2.7 1.4-9.1-3-11.4-8-32.7-17.5-45.4-20.2-10.1-2.1-29-1.8-38.6.6-21.7 5.7-57.8 29.3-72.5 47.6-9.8 12.3-24.7 33.9-35.8 52.1-20.6 33.9-23.4 38.3-24.8 38.3-3.4 0-37.1-34.7-49.6-51.1-5.7-7.4-17.1-21.6-25.3-31.6-8.2-9.9-21.3-27-29.1-37.9-21.3-29.8-31.4-42.3-46.7-58.1C40.2 135.4 31.9 129 25 127c-6.5-1.9-6.2-4.8-5.3 49.9 1.5 96.8.1 168.1-4.3 221.6-1.3 16.5-2.9 43.7-3.4 60.5-.5 16.8-1.2 34.3-1.5 39-.8 11.5-5.1 46.5-7.6 62.5C1.8 567.7 1 576 1.2 579c.3 4.8.6 5.5 2.6 5.8 1.2.2 2.2.2 2.2 0S7.1 578 8.5 570c2.8-16.6 8-58.1 9-71.5.3-5 1-22.5 1.5-39s2-43.5 3.4-60c4.4-53.1 5.8-126.2 4.3-220.3-.9-54.3-2-49.5 9.2-40.2 13.8 11.5 38.9 42 63.9 77.6 3.9 5.6 14.9 19.6 24.3 31 9.5 11.5 20.6 25.4 24.7 30.9 10 13.3 23 27.3 38.1 41.3 13.8 12.7 17.7 15 21.8 13 2.6-1.3 10.2-12.7 28.6-43.3 9.4-15.6 26.8-40.9 34.9-50.7C285.4 223 317 201.9 338 195c8.3-2.7 24.8-3.7 34.7-2.1 11.1 1.9 31.9 10.8 43.3 18.6 15.3 10.5 18.7 9.5 32-10.2 11-16.3 17.6-29.6 29.5-59.8 5.9-14.9 13.6-33.3 17.2-41 8.2-17.8 12.8-29.3 18.8-47.5 2.6-8 6.5-18.2 8.5-22.7 2.1-4.4 4.3-9.8 5-11.8.7-2 1.5-3.3 2-2.8.4.4 2.2 4.6 4 9.3 5.8 14.8 19.6 44.3 38.8 82.5 10.1 20.3 22.2 45.3 26.7 55.5 4.5 10.2 11.1 23.7 14.7 30 3.6 6.3 16.8 32.4 29.5 58 12.6 25.6 27.8 55.3 33.8 66 11.5 20.6 14.8 27.4 25.2 51.5 6.8 15.7 12.2 26.4 20.5 40.3 2.8 4.6 6.7 12.2 8.8 17 2.1 4.8 5.8 12.3 8.3 16.6 2.5 4.4 5.2 9.9 5.9 12.3 1.1 3.7 1.6 4.3 4 4.3 1.6 0 3.1-.6 3.4-1.3.6-1.6-3.3-10.6-7.6-17.5-1.7-2.8-4.8-9.1-6.9-13.9-2.1-4.8-7.7-15.5-12.5-23.8-4.7-8.2-11.3-21.3-14.7-29-13.4-30.4-16.4-36.6-26.6-55-5.9-10.4-21-39.9-33.6-65.5-12.7-25.6-26.3-52.4-30.3-59.5-4-7.2-11.1-21.6-15.7-32C600 151 588 126.1 578 106.1c-25.1-50.3-34.2-70.2-41.7-90.6-4.1-11.3-6-14.5-8.9-14.5-.6 0-1.6.6-2.1 1.2z"/>
  <path d="M447.4 250.4c-.3.8-.1 3 .5 4.8.6 1.8 1.7 6.6 2.5 10.6 2.7 12.9 15.9 28.9 31.6 38.1 10 5.8 26.6 16.9 28.1 18.7.6.8.9 1.8.5 2.2-.4.4-8.7.7-18.4.6-15.1 0-18.9-.3-25.5-2.2-17.1-4.7-26.9-12-32.7-24.5-3.9-8.1-4-16.9-.5-31.6 2.5-10.3 2.4-12-.7-12.1-1.2 0-3.7 4.3-5.9 10.6-1.7 4.7-2.2 8.3-2.3 17.4-.1 11.3 0 11.6 3.3 17.8 1.9 3.5 5.1 8.2 7.2 10.6 5 5.7 17.2 12 29.7 15.4 9 2.4 11.2 2.6 29.8 2.7 21 0 23.4-.5 23.4-4.4 0-3.3-10.7-11.5-29-22.3-17.1-10.1-32-27.9-32-38.3 0-2.4-2.6-11.4-3.7-13.1-1.4-2-5.3-2.7-5.9-1zM378.3 264.7c-1.2 1-4.5 6.4-7.4 12.1-5.7 11.3-11.4 17.4-17.8 19.2-6.5 1.8-18.1 1.2-27.2-1.5-9.6-2.8-10.9-3-10.9-1.3 0 2.7 23.9 32.4 34.4 42.6 15.2 14.9 16.9 15.7 32.2 15.7 11.7 0 12.2-.1 16.9-3 8-5 8.9-6.9 9.3-19.8.3-7.2-.2-14.4-1.2-20.2-3.1-17.8-11.2-38.7-16.6-42.7-3.9-2.8-9.1-3.4-11.7-1.1zm8.6 5.9c2.6 3.3 7.5 16 10.9 28.2 2.3 8.5 2.6 11.6 2.7 24.8 0 16.8-.1 17.1-7.2 21.5-5 3.1-18.5 3.8-23.9 1.3-5.6-2.7-24.6-22-34.6-35.4-4.8-6.3-8.6-11.6-8.5-11.7.2-.1 2.3.3 4.7.8 2.5.6 9.5.9 15.5.7 9.8-.3 11.5-.6 15.6-3 6.4-3.8 10-8.2 15.9-19.8 2.9-5.5 5.6-10 6-10 .5 0 1.8 1.2 2.9 2.6zM260.6 322.8c-.7 1.2 1.5 2.6 5.9 3.6 5.2 1.3 18.6 9.9 23.1 14.9 5.1 5.7 7.3 11.8 8.1 22.8.6 7.9-.3 15.8-1.6 14.3-.4-.5-1.3-3.4-2.1-6.4-1.5-6.5-4.9-13.5-8.5-17.8-6.7-8-31.6-14.8-41-11.2-4.2 1.6-1.9 3 4.8 3 14 .1 27.6 5.1 31.9 11.9 5.2 8.1 8.8 21.6 8.8 33.4 0 7.4.1 7.8 2.6 8.7 3.6 1.4 4.9.1 7.3-7.3 4.8-14.8 5.4-18.5 4.8-27.5-1-14.9-4.5-22.2-14.4-30.3-9.8-8-27.7-15.3-29.7-12.1zM534.6 392.1c-7 .6-10.2 1.4-15.5 4-9.2 4.5-22.5 18-32 32.4-9.3 14.1-26.9 49.1-25.4 50.6 2.8 2.8 5 .1 15.1-19.1 19.3-36.4 32.5-53.1 48.2-60.8 5.3-2.6 6.1-2.7 21.5-2.7 12.6 0 18.4.5 27.3 2.3 24.6 5 46.7 15.6 62.1 29.7 3.1 2.9 6.3 5.4 7.1 5.5 5.9.9 5.2-1.9-2.1-8-21.7-18.1-44.7-28-74.9-32.4-14.2-2-20.9-2.3-31.4-1.5z"/>
  <path d="M555.9 416.2c-6.2 20.2-17 44.2-18.9 42.1-.4-.4-2.4-5.1-4.5-10.3-8.4-21.5-15.5-33.4-18.3-30.6-.6.7 16.2 43.4 18.2 46.1 1.8 2.5 7.2 2.2 10.1-.5 4.8-4.5 15.4-28.3 20.6-46.2 2.4-8.6 2.1-10.8-1.5-10.8-2.3 0-2.8.8-5.7 10.2zM265 466.9c0 .6-1.6 1.1-3.6 1.1-6.7 0-24.6 3.1-32.8 5.7-10.6 3.3-18.4 7.5-24.1 12.9-9.1 8.8-25 36-33.6 57.8-4.4 11-4.7 12.2-3.2 13.3.9.7 2.1 1.3 2.5 1.3 1.3 0 4.5-5.8 7.9-14.5 6.4-15.9 18.8-38.2 28.1-50.2 9-11.7 25.7-18.6 52.6-21.8l5.4-.6-.6 2.8c-.4 1.5-1.1 5.4-1.6 8.6-1.2 7.6-5.6 23.5-7.9 28.9-1 2.4-3.1 5.4-4.6 6.8l-2.7 2.5-3.4-4c-4.4-5-11-14.9-16.4-24.7-3.9-7-7.2-10-8.6-7.7-1.1 1.9 10.5 23.4 17 31.5 6.3 7.8 8.5 9.4 13.3 9.4 3.4 0 9.4-5.9 12-11.7 2.6-6.1 7.5-24.5 9.3-35.1l1.2-7.2h12.7c7 0 19.7.7 28.2 1.5 15 1.5 21.8 2.7 44.4 7.9 10.8 2.5 15 2.6 14.2.3-.4-1.3-.4-1.3-19.2-5.6-23.2-5.4-34.2-6.8-61.3-8.2-10.3-.5-20.2-1.2-21.9-1.5-2.1-.4-3.3-.2-3.3.5z"/>
</svg>
