<svg xmlns="http://www.w3.org/2000/svg" version="1" viewBox="0 0 1436 680">
  <path d="M1075.5 5.3c-4.5 2.3-11.8 6.9-16.5 10.2-12.1 8.7-54.1 51.2-82 83-26.3 30-42.2 45.8-56.2 55.8-18.5 13.2-40.1 21.7-55.4 21.7-9.5 0-19.2-3.2-31.9-10.6-18.3-10.6-28.9-14.5-57-21.1-15.1-3.5-16.9-3.7-32-3.6-17.8.1-24.4 1.3-44 7.9-16.9 5.7-29.6 11.4-46.5 21-20.4 11.5-25.7 15-50 32.4-38.9 27.9-51.3 35-60.8 35.3-4.7.2-5.2 0-12.4-6.5-8.2-7.3-73-72-139.8-139.6-22.8-23-44.4-44-47.9-46.6-10.4-7.6-19.8-11.8-27-11.9-4.2-.1-6.5.3-7.6 1.4-.8.8-5.3 9-10 18.2-10.1 20.1-15.2 34.5-26.6 75.7-1.6 5.8-5.2 17.5-7.9 26s-6.1 20.9-7.5 27.5c-1.5 6.6-3.7 16.3-5 21.5-1.3 5.2-4.2 19.4-6.5 31.5-2.3 12.1-5.7 28.3-7.6 36-1.9 7.7-4.4 19.8-5.5 27-1.2 7.1-3.4 19.1-4.9 26.5-1.6 7.4-4 20.2-5.4 28.5-1.4 8.2-4.6 25.3-7 38-4.6 23.6-8.2 46-11.1 69.1l-1.7 13.2-4.6.6c-2.4.3-6.8.6-9.6.6-18.7 0-98.3 13.5-99.4 16.9-.6 1.7.2 1.6 28.8-3.8 44.9-8.5 84-12.6 84-8.9 0 1.3-3.5 25.6-4.5 31.4-.5 3.1-.6 3.1-9.8 4.4-45.1 6-91.8 22.6-160.2 57C4.6 582-2 586 1.9 586c.7 0 13.9-6.3 29.4-13.9 70.3-34.7 111.8-49.1 159.7-55.5l4.6-.7-.7 7.8c-1.2 12.6-1.1 17.5.4 17.1 1-.4 2.6-10.6 3.6-23.5.1-.6 1.5-1.5 3.3-1.8 4.9-1.1 49.3-.8 59.7.5 5.7.6 9.8.7 10.4.1 2.9-2.9-12.8-4.5-44.5-4.5-18.4 0-27.8-.4-27.8-1.1 0-.5 1-8.4 2.2-17.4l2.2-16.4 17.1.6c19.9.7 31.5 2.3 51.8 7.3 13.6 3.4 17.5 3.8 15.1 1.5-1.4-1.4-17.4-5.7-29.4-8-12.4-2.4-24.9-3.8-41.8-4.7l-12.4-.6.6-3.2c.3-1.7 1.2-8.7 2.1-15.6 2.7-20.9 5.3-37.3 10.5-64 2.7-14 6-32.4 7.5-40.8 1.4-8.4 3.7-20.4 5-26.6 1.4-6.3 3.4-17.1 4.5-24.2 1.1-7 3.8-20 6-28.8 2.1-8.9 5.3-24 7-33.6 1.7-9.6 4.7-24 6.6-32 1.9-8 4.6-19.5 5.9-25.5 1.3-6.1 4.2-16.4 6.5-22.9 2.3-6.6 5-15.6 6-20 1.1-4.5 3.1-11.5 4.5-15.6s3.5-11.1 4.6-15.5c4-16.1 12-36.9 20.2-52.5l8.2-15.5 5.3-.3c6.1-.4 12.3 2.1 22 8.6 8.7 5.9 33.3 29.4 61.7 58.8 57.5 59.6 89.3 91.6 117.6 118.7 21.5 20.5 22 20.7 33.9 16.7 10.8-3.6 21.6-10.3 53-33 23.7-17.1 30.1-21.3 47-31 19.8-11.4 31.8-17 49.3-22.9 19.8-6.7 27.5-8.2 43.7-8.4 14.3-.1 15.9.1 41.5 6.3 19.7 4.8 29.9 8.8 45 17.4 21.9 12.6 33.6 14.7 52.5 9.2 31.5-9.2 55-27.7 97-76.6 24-27.9 71-75.3 82.2-82.9 8.7-5.8 22.9-13.1 25.5-13.1 3 0 11.5 4.5 18.1 9.5 16.6 12.6 45.5 55.4 62.4 92.7 10.9 24.2 22.1 53.5 35 92.3 10 29.9 16.2 46.3 26.4 70.3 7.4 17.2 14.8 34 16.5 37.3 5.7 11.4 6.1 9.9-4.9 18-35.5 26.2-78.2 69.3-73.4 74.1.7.7 1.3 1 1.5.7.1-.2 2-3.1 4.2-6.4 4.9-7.6 31.6-34.9 46-47 16.2-13.6 32.6-25.8 33.5-24.8.7.7 21 43.1 21 43.8 0 .2-3.7 2.5-8.2 5.1-18.3 10.5-50.8 33.2-50.8 35.4 0 2.5 2.6 1.1 13.1-6.7 6.3-4.7 14.4-10.5 18.1-12.9 11.4-7.3 28.4-17.4 29.5-17.4.5 0 1.9 1.8 3.2 4 4.4 7.9 15.9 24.6 21.2 31 3 3.6 6 7.2 6.7 8.1 1.1 1.5-.6 2.6-15 9.8-17.1 8.5-40.9 22.7-41.6 24.8-.8 2.6 2.9 1.2 12-4.5 13.3-8.4 27.9-16.4 38.4-21.1 5.1-2.3 9.4-4.1 9.6-4.1.3 0 4.8 4.3 10 9.5s10 9.5 10.7 9.5c2.6 0 .6-3-8-11.6l-9.1-9.1 8.3-3.3c30.7-11.7 57.6-19.1 88.4-24 24.2-3.9 23.5-3.8 23.5-5.6 0-1.1-.8-1.4-3.2-1-1.8.3-10.4 1.7-19 3.1-32.9 5.2-64.3 13.7-92 25-3.4 1.4-6.7 2.5-7.4 2.5-2.8 0-18.3-20.3-29.2-38.2l-4.2-6.8 2.3-1.4c5.8-3.8 34.5-15.9 58.7-24.8 7.4-2.7 13.9-5.3 14.4-5.8 5.6-5.6-35.1 8.9-66 23.5l-11.2 5.3-10.6-21.9c-5.8-12.1-10.6-22.3-10.6-22.8 0-1.9 19.8-14.1 68-41.6 19-10.9 35.7-20.6 37.3-21.7 2.8-2 3.6-3.8 1.5-3.8-.7 0-13.7 7.2-28.8 15.9-15.1 8.8-34.4 19.9-42.9 24.8-8.5 4.8-20.3 12-26.3 16l-10.8 7.2-3.9-7.7c-11.1-22.1-30.9-71-40.2-99.2-12.6-38-16.9-50-26.9-75-25.7-64.3-59.9-115.8-85.2-128.5-9.1-4.5-12.2-4.4-22.3.8z"/>
  <path d="M1019.5 321.2c-.3.7-1.8 6-3.5 11.7-1.6 5.7-3.1 10.5-3.3 10.8-.2.2-2.6-.6-5.2-1.7-11.8-5.1-20.1-6.5-37.5-6.4-15.3 0-17.4.3-28.4 3.2-6.5 1.7-14.8 4.5-18.5 6.2-20.7 9.7-47.5 39.4-67.7 75.2-5.8 10.1-16.4 33.7-16.4 36.3 0 3 2.9 1.4 4.1-2.3 2.4-7.4 10.7-25.1 16.4-34.8 20.8-35.5 45.8-62.8 65.6-71.8 3-1.4 10.8-3.9 17.4-5.6 21.3-5.4 38.8-5.1 58 1.1 12.5 4 11.9 3.4 10.1 11-2.4 10.3-10.4 55.4-12.1 67.9-2.5 18.3-6.3 38.4-9 46.8-2.7 8.7-8.2 18.5-10.5 19-1.8.3-5.9-9.2-11-25.8-1.8-5.8-7.2-19.5-12-30.5s-12-29-15.9-40c-14.6-40.5-14.6-40.4-16.4-38.6-.6.6.8 5.8 4.2 14.8 2.8 7.6 8 21.7 11.5 31.3 3.5 9.6 10.3 26.3 14.9 37 4.7 10.8 9.9 24.3 11.6 30 1.7 5.8 4.5 13.8 6.2 17.7 3 7 3.3 7.3 6.5 7.3 3.7 0 5.3-1.7 10.2-11.6 4.8-9.5 8.5-25.9 13.2-59.3 2.3-16 11.4-65.4 12.8-69 .8-2.2 1-2.1 9.9 3.7 17.3 11.4 31 25.3 53.5 54.2 5.7 7.4 12.8 17 15.7 21.2 4.9 7.5 6.4 8.8 7.5 7 .7-1.2-9.5-15.9-23.7-34.2-19.9-25.6-41.2-45.6-60.1-56.5-1.7-1-1.6-1.7 1.3-11.8 1.7-5.9 3.1-11.6 3.1-12.7 0-2.2-1.8-2.7-2.5-.8zM551.5 385.1c-13.4.8-36.8 4.1-45.6 6.4-25 6.5-45.6 17.2-65.8 34-26.4 22-45 45.4-56.5 70.9-5.9 13.2-6.8 16.1-4.8 16.1.7 0 3.7-5.5 6.7-12.3 7.9-17.9 11.9-24.3 26.1-41.7 8.7-10.6 17.2-19.2 29.5-29.7 31.8-27.3 66.6-38.9 124.4-41.3 19.3-.8 28.9.7 50 7.8 25.8 8.8 37.9 14.6 50.9 24.5 6.9 5.2 10.1 7.9 39 33.2 20.6 17.9 29.9 25 33.1 25 3 0 1.1-2-7.2-7.8-4.5-3.1-17.1-13.6-28-23.2-42.6-37.8-49.9-42.4-86.9-54.9-23.8-8-33.5-9-64.9-7z"/>
  <path d="M592.1 419.7c0 12 .4 25.4.9 29.8 1.6 13.6 2.4 79.1 1.2 87.1-1.4 8.5-4.9 20.4-6.1 20.4-1 0-12.1-14.8-17.3-23.1-2-3-12.8-24.2-24.1-47-22.2-44.7-34.3-66.9-36.4-66.9-2.2 0-1.6 1.7 4.6 12.3 3.2 5.6 15.8 30.1 27.9 54.4 12.2 24.3 23.8 46.8 25.8 50 6.2 9.6 17.6 24.3 18.9 24.3 2.3 0 4.7-3.9 7.2-11.7 2-6.3 2.6-11 3.3-24.3.8-17.2-.3-59.8-2-77.9-.5-5.8-1-19.1-1-29.8 0-16.5-.2-19.3-1.5-19.3s-1.5 3.1-1.4 21.7zM274 568.6c-59.7 8.7-99.4 26-208.3 90.7C40.6 674.3 34 679 38.1 679c.5 0 12.6-6.9 26.7-15.3 76.3-45.6 120.9-68.5 155.2-79.7 16.9-5.5 52.8-13 62.8-13 4.3 0 6.8-1.3 5.8-2.9-.9-1.3-2.4-1.3-14.6.5z"/>
</svg>
