<svg xmlns="http://www.w3.org/2000/svg" version="1" viewBox="0 0 1345 697">
  <path d="M830.3 2.9c-1 1.1-3.2 4.3-4.9 7.3-1.8 2.9-11.3 18.8-21.2 35.3-22.4 37.4-35.9 61-42.4 73.9-11.4 22.8-25 44.4-33 52.6-3.6 3.8-4.4 4.2-7.7 3.7-3.7-.5-21.6-7.4-49.6-19.2-20.8-8.8-44.8-17-55.5-18.9-10.8-2-31.4-2.1-44.3-.1-25.5 3.8-56 18.7-83.3 40.6-6.7 5.4-19.7 17.1-29 26.1-15.7 15.2-28.1 26-34.6 30.2-2.6 1.7-2.9 1.7-8-.2-8.3-3.2-36.3-16.9-45.7-22.5-50.2-29.6-70.3-48.7-126-119.5-5-6.3-7.9-9.2-9.3-9.2-2.1 0-2.1.1-1.3 30.7 1.1 40.9 1.1 52-.3 82.8-1.1 23.5-2 33.7-6.7 71.5-.8 6.3-1.9 24.3-2.5 40-.5 15.7-1.4 42.2-2 59-.6 16.8-1.5 35.4-2.1 41.4-.5 6-1.4 19.4-1.9 29.8-.5 10.5-1 19.1-1.2 19.3-.2.1-5.9.8-12.8 1.5-23.5 2.2-50.6 7.8-94.7 19.7-11.7 3.1-17.3 5-17.3 5.9 0 .8.5 1.4 1.2 1.4.6 0 9.5-2.2 19.7-5 41-10.9 65.5-16.1 88.4-18.5 8-.8 14.9-1.5 15.2-1.5.3 0 .5 13.9.5 31v31l-2.7.6c-11.2 2.6-44.3 12.8-67.3 20.7-41.2 14.2-79.4 27.8-80.4 28.7-.4.5-.5 1.3-.2 1.9.4.6 5.3-.7 13.4-3.6 62.6-22.4 105.4-36.7 128-42.7l9.2-2.5v15c0 12.1-.3 14.9-1.4 14.9-3 0-30.6 9.5-44 15.1-35.2 14.9-68.7 35.5-106.2 65.3-30.7 24.4-66.4 57-64.5 58.9.7.7 5-2.7 12.8-10 60.1-55.8 108.3-89.6 158.4-110.9 12.1-5.1 41.3-15.4 43.9-15.4.5 0 1 1.5 1.1 3.2.1 5.2 3.3 16.1 4.8 16.6 1.1.4 1.3-.3.7-3.4-2.1-11.7-2.7-16.6-2.2-17.1.9-.9 18.2-4.2 30.5-5.8 15.7-2.1 29.4-2.1 35-.1 5.3 1.9 5.1 1.9 5.1.1 0-1.7-3.1-3.1-10.4-4.7-6-1.3-24.7.2-42.6 3.3-6.3 1.1-13 2.3-14.7 2.6l-3.3.6V526l2.5-1c5.5-2.1 42.3-9 54.1-10.1 9.7-1 12.4-1.5 12.4-2.7 0-3-26.2.3-55.3 6.8-7.2 1.7-13.3 3-13.5 3-.5 0-.1-55.4.5-58.3l.6-3 17.6.6c26.4.9 48.1 5.1 67.2 13.2 4.6 1.9 8.7 4.2 9.2 5 1.1 2.1 3.9 1.9 3.5-.2-1.1-6.1-31.1-16.3-57.6-19.7-6.8-.9-18.6-1.6-26.3-1.6H222v-10.9c0-6 .7-19.2 1.5-29.3 1.8-22.6 4.5-85 4.5-105.3 0-16.6 1.1-31.2 4-54.5 3.7-29.2 4-33.5 5.5-65.5 1.3-26.4 1.4-38.2.4-67.8-.6-19.7-.9-36.1-.6-36.3.2-.3 6.3 7.1 13.5 16.3 44.5 57.3 70.5 81.4 117.7 109.3 16.2 9.5 49.5 25 53.9 25 3.2 0 22.3-15.7 40.1-33 27.4-26.5 43.6-38.8 67.4-50.9 22-11.2 41.7-16.1 65.1-16.1 19.9 0 38 4.9 73 19.6 36.5 15.3 47.4 19.5 52.8 20.1l5.3.6 5.3-5.4c7.8-8.1 19.1-25.9 30.9-48.4 11.8-22.8 19.3-35.8 42.2-74 8.9-14.9 18.8-31.3 21.9-36.7 3.1-5.3 6.3-9.8 7-10.1 3.9-1.5 21 11.1 33 24.4 22.7 25.1 54.3 80.9 88 155.4 12.4 27.4 40.4 84.3 50.2 101.9 5.4 9.8 6.3 12.1 5.2 13.1-.7.7-10.3 8-21.4 16.3-21.9 16.5-23.5 17.8-21.1 18.8 1 .3 4.3-1.7 8.9-5.4 9.7-7.8 35.9-27.2 36.7-27.2.4 0 3.6 5.5 7.2 12.2 3.5 6.7 9 16.6 12.2 22 3.1 5.3 5.7 9.9 5.7 10.1 0 .3-4.3 3.5-9.5 7.2-8.4 6-11.6 9.5-8.5 9.5.5 0 5-3 10-6.6 4.9-3.6 9.5-6.4 10.1-6.2.6.2 4.7 6.6 9.1 14.3 4.4 7.7 12.7 21.2 18.4 30.1 5.7 8.8 10.4 16.5 10.4 17.1 0 .6-8.6 4.1-19.2 7.9-10.5 3.8-19.3 7.5-19.6 8.1-.7 2.4 3.2 1.3 22.3-5.6l18.8-6.9 5.3 8.8c7.6 12.9 16.7 30.4 19.9 38.5 3.4 8.4 4.5 9.9 5.8 8.6 1.8-1.8-8.4-24-20.5-44.4-3.9-6.5-6.6-12.2-6.2-12.7 1.4-1.2 37.6-13.7 70.6-24.4 30.8-9.9 49.8-15.3 72.6-20.6 9.2-2.2 13.2-3.6 13.2-4.6 0-.8-.6-1.4-1.2-1.4-1.7 0-40.3 9.5-49.3 12.1-12.6 3.6-73.9 23.7-91.1 29.9-13.2 4.7-17.1 5.7-18 4.7-3.5-3.9-25.9-40.4-38-61.9-.8-1.4 38.8-25.6 61.6-37.6 41.4-21.7 72-33.8 131.7-51.7 32.7-9.8 58.3-15 102.6-21 3.1-.4 4.7-1.1 4.7-2.1 0-1.8-.2-1.8-17.2.6-48.8 7-75.9 13.7-135.3 33.5-44.1 14.7-88.1 35.8-132.3 63.6-9.6 6-17.7 10.9-18 10.9-.4 0-2.2-2.6-4.1-5.8-4-6.8-21.1-38.2-21.1-38.7 0-.3 4.8-3.7 10.6-7.6 25.4-17 80-45.1 135.4-69.8 7.4-3.3 13.5-6.6 13.5-7.3 0-2.1-2.5-1.2-24.8 8.8-46.2 20.7-100.6 49-123.7 64.3-6.3 4.2-11.9 7.7-12.5 7.9-2.1.5-36.8-67.7-56.1-110.3-5.9-13.2-18.1-38.6-27-56.5-33.1-66.3-56.2-100.2-81.9-120-10.2-7.9-15.9-9.7-19.2-6.1z"/>
  <path d="M779.5 318c-30.5 6.1-66 34-82.8 65.2-5.9 10.8-9.2 20.4-12.8 36.3-2.4 10.9-2.9 15.3-2.9 27 0 11.3.3 14.5 1.6 16.4 2 2.8 4.2 1.4 2.5-1.7-.6-1.2-1.1-7.3-1.1-14.2 0-12.7 1.9-24.5 6.6-40.8 10.6-36.5 44.5-70.9 81.4-82.7 11.3-3.5 23.4-4.3 35.8-2.1 8.2 1.4 22.1 6 26.1 8.5 2.3 1.5-6.1 60.9-15.4 109.1-1.8 9.6-4.8 26.9-6.5 38.5-1.7 11.5-3.4 22.1-3.7 23.5-.4 1.6-1.6-3.2-3.3-13-7.4-41.6-19-77.4-38.8-119.7-4.3-9.2-9.4-20.5-11.2-25.1-3.1-7.9-4.2-9.3-5.5-7.2-.7 1.2 4.4 13.7 13.7 33.5 8.4 17.9 18.3 42 23.1 56.5 5.2 15.4 13 47.9 16.6 68.5 3.3 18.4 5 23.1 7 18.4.5-1.3 1.5-6.9 2.1-12.4 1.4-13.6 6.4-44.3 10.5-65.5 4.9-24.8 7.9-43.6 12-73.6 1.9-14.4 3.5-26.7 3.5-27.3 0-2 1.6-1.2 9.9 5 14.7 10.9 24.8 22.4 31.5 35.7 5.7 11.3 11.4 29.9 14.6 47.4.8 4.6 1.7 6.8 2.6 6.8 1.8 0 1.8-.9-.7-13.6-4.2-22-13.3-44.5-23.1-57.2-5.5-7.1-16.5-17.2-26.1-24-6.5-4.5-7.8-5.8-7.3-7.6.3-1.2.9-3.8 1.2-5.9.5-3 .4-3.7-1-3.7-1.1 0-1.8 1.2-2.2 3.9-1 6.3-1.2 6.3-10.8 2.4-4.9-1.9-12.3-4.1-16.5-4.9-8.2-1.4-24.2-1.7-30.6-.4zM485.5 376.9c-16.1 2.6-33.5 11.4-46 23.2-4.4 4.2-5.7 4.9-7.9 4.3-2-.5-2.6-.2-2.6.9 0 .9.5 1.9 1 2.2.6.4-1.7 3.6-5.1 7.3-13.9 15-28.4 36.9-35.5 53.3-10.1 23.6-13.5 39.9-10.4 49.3 1.3 4 3.7 4.4 3.2.5-.2-1.3-.4-6.5-.3-11.5 0-8.4.4-10.3 4.7-22 5.8-16.3 12.3-29.2 21.2-42.5 6.5-9.6 23.8-30.9 25.1-30.9 1.5 0 14 20.4 23.1 38 17.6 33.8 32.8 67.1 40.6 88.8 1.9 5.3 3.9 10.9 4.5 12.4 1.2 2.9 3.3 3.7 4.5 1.7.4-.6 1-11.5 1.5-24.3.4-12.7 1.5-34.6 2.4-48.6.8-14 1.5-30 1.5-35.5 0-12.5 1.6-27.4 3.5-34 .8-2.8 3.1-7.7 5.1-11 6.5-10.7 6.9-11.4 6-12.2-2.2-2.2-12.6 15.4-15.1 25.8-1 4.2-2 18-3 39.9-.8 18.4-1.9 39.9-2.5 47.7-.5 7.8-1 19.5-1 26s-.3 13.5-.7 15.7c-.6 3.8-.6 3.7-4.3-6.5-5.4-15-15.6-38-28.7-64.8-13-26.8-20.2-39.9-28.5-52.3-3.2-4.8-5.8-9.2-5.8-9.7 0-1.7 13.3-12.3 21.8-17.4 14.7-8.9 30.1-12.3 47.9-10.6 17.4 1.6 32.5 9.3 47.2 24 8.3 8.3 12.5 14.1 21.3 28.8 13.7 23.2 25 41.1 25.8 41.1 2.4 0 1.3-2.7-5.2-13.1-3.9-6.3-10.9-17.9-15.6-25.9-10.6-18.1-17.2-26.9-26.8-35.9-15.7-14.6-31.9-21.8-51.1-22.6-5.9-.2-13.1 0-15.8.4z"/>
</svg>
