<svg xmlns="http://www.w3.org/2000/svg" version="1" viewBox="0 0 1183 552">
  <path d="M996.5 2.9c-4.7 2.9-96 95.2-107 108.1-18.6 21.8-50.3 55.6-61.9 66-23.1 20.6-40.7 32-49.5 32-6.5 0-15.4-5.1-24.6-14-10.9-10.6-24.3-19.8-40-27.6-10.9-5.3-16.1-7.2-30.6-10.8-23.7-6-30.6-7-50.4-7-15.2 0-19.2.4-38 3.7-29.2 5.2-46.5 10.1-78 22.2C455.3 199 411.9 210 379.9 210c-13 0-15.2-.8-29.8-10.7-16.2-11.1-35.9-27.7-67.9-57-33.4-30.7-51.4-45.4-78.7-64.3-30.3-20.9-44.6-32.8-61.6-51.2-17.9-19.3-22.7-24-23.7-23.4-2.3 1.4-5.2 21.7-7.7 53.1-1.1 13.6-5.5 50.5-7.1 60.5-.9 5.2-3.4 15.8-5.5 23.5-2.1 7.7-5.4 21.9-7.3 31.5-4.1 20.7-5.6 26.9-14.6 58.5-3.7 13.2-9.3 35-12.4 48.5-7.8 33.4-10.6 43.9-18.6 69.5-3.8 12.1-9.1 30.3-11.9 40.5-2.8 10.2-7.3 25.2-10.1 33.5-2.8 8.2-7.3 22.6-10 32-2.7 9.3-6.3 21-8 25.9-3.3 9.8-3.6 12-1.8 11.4 1.9-.7 5.2-10.1 12.3-34.3 3.5-12.1 8.5-28.1 11-35.5 2.5-7.4 7-22.5 10.1-33.5 3-11 8-27.7 10.9-37 7.7-24.1 10.4-34.3 18-67.1 3.7-15.9 10.3-41.5 14.7-56.9 4.4-15.4 10-37.7 12.4-49.5 2.4-11.8 6.4-29.2 8.9-38.5 2.4-9.4 4.9-19.9 5.4-23.5 1.7-10.7 5.1-40.4 6.6-57.5 3.3-36.7 4.9-49 6.5-50 .4-.2 2.7 1.9 5.1 4.8C147.5 39.9 165.8 56 203.5 82c25.2 17.3 42.8 31.7 72.5 59 43.8 40.3 69.6 61.1 86 69.4l5.5 2.8 17.5-.5c18.6-.5 33.5-2.8 57-8.7 14.1-3.6 52.3-16.4 76.5-25.8 30.3-11.7 47.9-16.6 78-21.9 18.4-3.2 23-3.7 36.5-3.6 29.7.1 62.7 8.2 86 21 11.3 6.2 25.2 16.5 32.8 24.1 9.3 9.3 21.3 15.7 27.7 14.7 20-3 60.5-38.8 112.7-99.5C903.5 99.9 995.5 6.9 999.1 5c6.3-3.4 15.7 1 27.1 12.8 16.7 17.3 26.8 35.8 37.8 69.2 11.2 33.8 14.4 59 17 132.5 1.3 36.9 2.3 50.5 5.6 75.5 3.5 26.8 6.8 44.3 10.9 56.8 4 12.4 21.1 47.6 37.5 77.2 6.3 11.3 14.2 26.6 17.8 34 13.4 28.5 14.2 29.8 20 36 3.2 3.3 6.5 6 7.5 6 .9 0 1.7-.3 1.7-.6 0-.4-2.9-3.7-6.4-7.4-3.7-4-7.6-9.4-9.4-13.2-14.3-30-21.2-43.6-29.1-57.8-11.3-20.3-31.9-62-35.6-72.1-4.8-13.3-8-30.1-12.4-64.4-2.7-20.9-3.8-37.7-5.6-85.5-2.4-63.5-6-87.9-17.7-122-6.7-19.3-12.9-33.3-19.4-43.7-18.2-29-37.9-42.9-49.9-35.4z"/>
  <path d="M749 256.6c0 .3 3.4 10.6 7.6 22.8 7.1 20.8 12.4 32.7 15.8 35.5 3 2.5 2.6-1.1-.7-6.7-2-3.1-6-12.9-9.1-21.7-10.4-29.7-10.8-30.5-12.2-30.5-.8 0-1.4.3-1.4.6zM851 280.2c0 13.7.5 16.8 2.8 16.8 1.2 0 1.4-.9.8-4.6-.3-2.6-.6-9.1-.6-14.5 0-8.1-.3-9.9-1.5-9.9-1.3 0-1.5 2-1.5 12.2zM431.6 288.2c-.3 2.4-1.2 9.6-2.1 16.1-1.9 14.7-1.9 15.7 0 15.7.8 0 1.5-.3 1.5-.7 0-.3.9-7.8 2.1-16.6 1.1-8.7 1.8-16.5 1.5-17.3-1-2.7-2.5-1.3-3 2.8zM285.5 288.9c-.9 1.6 3.8 12.7 14.9 34.8 9.7 19.4 12.6 24 12.6 19.8 0-.8-4.4-10.4-9.8-21.3-5.5-10.8-11.2-23-12.7-27-2.7-6.9-3.7-8.2-5-6.3zM364.5 292.9c-.6 1.1 2.5 25 4.8 36.5.7 3.4 1.8 6.1 2.6 6.4 1.7.6 1.5-.8-2.4-25.8-2.5-16-3.5-19.4-5-17.1zM695 293.2c0 1.4 13.7 27.9 19.7 37.8 6.1 10.4 9 13.7 10.3 12.4.8-.8-.1-2.9-3.3-7.5-5-7.2-16.5-27.9-20.8-37.6-1.7-3.8-3.4-6.3-4.4-6.3-.8 0-1.5.5-1.5 1.2zM926.3 296.2c-.9 1.4-7.2 23.6-7.3 25.5 0 2 2.8 1.5 3.4-.5 1.6-5.3 6.6-24.4 6.6-25.2 0-1.4-1.7-1.2-2.7.2zM518.6 323.2c-.3 1.3-.6 6.3-.6 11.1 0 6.7.3 8.8 1.3 8.5 1.2-.5 3.2-18 2.2-20.6-.7-1.9-2.2-1.4-2.9 1zM186.6 334.8c-.8 1.4-.4 1.9 19.8 24.7 18 20.3 25.8 28.5 27.4 28.5 2.4 0 1.1-2.7-3.4-7-2.6-2.5-10.6-11.3-17.9-19.5-21.3-24.2-25.1-28-25.9-26.7zM246.6 335.8c-.2.4 3.7 5.3 8.9 10.8 6.7 7.1 9.6 9.6 10.4 8.8.8-.7-1.4-3.7-8-10.7-8.8-9.4-10.3-10.6-11.3-8.9zM796.5 349c-10.3 1.7-21.8 6.1-31.2 12.2-11.7 7.5-43.2 38.6-55.6 54.8-6.7 8.9-16.8 25-20.1 32.2-5.2 11.2-12.9 33.7-12.2 35.5 1 2.6 2 .7 7-13.4 6.1-17.2 9.1-23.9 16-35 11.6-18.8 27.9-37.5 51.5-59 18.3-16.6 31.9-23 52.6-24.7 9.4-.8 27.7.6 38.9 2.9 26.2 5.4 54.2 18.9 70.4 34 8.1 7.5 24.5 27.8 33.5 41.5 6.9 10.5 19.4 35 23.8 46.7 2.2 5.7 4.9 8.4 4.9 4.9 0-4.3-14.8-35.4-23.6-49.7-7.5-12.2-25.3-34.9-34-43.5-17.2-17-46.4-31.3-76.3-37.4-11.9-2.4-36.2-3.4-45.6-2zM386.6 355.6c-12.2 2.2-24.6 6.7-42.1 15.4-20.1 9.9-35.2 19.9-57.5 38.1-25 20.4-65 60.2-65 64.6 0 2.2 1.9 1.4 4.7-1.9 9.7-11.3 29.8-31.9 39.9-41 30.9-27.8 55.1-45.1 79.9-57.3 31-15.2 51.6-19.1 77.5-14.6 18.3 3.2 31.8 10.1 49 25.3 14.7 12.9 20.7 20.6 41.5 52.8 18.6 28.8 40.5 54.7 40.5 48 0-.6-4.3-5.9-9.6-11.8-11.3-12.6-14.8-17.4-34.4-47.2-8.1-12.4-17.8-25.9-21.6-30-15.5-17.2-33.5-30.7-48-35.9-16.1-5.8-37.6-7.6-54.8-4.5zM576.4 366.2c-1.5 2.9-5.2 9.8-8.4 15.3-6.2 10.8-16 29.6-16 30.8 0 .4.7.7 1.5.7.9 0 3.5-4 6.5-9.9 2.7-5.5 7-13.5 9.6-17.8 6.1-10.3 11.4-20.9 11.4-22.8 0-3-2-1.4-4.6 3.7zM989.8 375.7c-3.5 4.2-8.2 9.9-10.5 12.7-4.7 5.4-5.3 6.9-2.6 6.4 2-.4 21.3-23.5 21.3-25.5 0-2.7-2.2-1.1-8.2 6.4z"/>
  <path d="M768.7 371.6c-.3.3.9 3.6 2.8 7.3 11.5 22.8 19.5 49 26.9 88.4 4.9 25.6 6 30.3 10.3 43.9 3.9 12.3 5.2 13.8 8.5 10 3.1-3.4 8.7-16.1 15.2-34.2 9.8-27.1 13.9-37.4 23.8-58.5 10.1-21.5 12.6-26.2 20.9-39.1 3.3-5 5.9-9.6 5.9-10.2 0-6.4-14.2 15.5-25.8 39.8-11.4 23.8-17.5 38-23.7 55.8-9.6 27.2-16.4 43.2-18.4 43.2s-7.5-21-13.6-51.2c-7.4-37.3-11.3-51.5-19.6-72.3-7.7-19.4-11-25.1-13.2-22.9zM447.9 383.9c-5.6 3.6-10.5 8.8-11.9 12.6-.6 1.6-2.9 14.9-5 29.5s-5 32.8-6.4 40.5c-3.8 21.2-15.9 77.5-16.7 77.5-1.7 0-15.2-36.3-28.8-77.3-12-36.4-19.8-56.6-29.4-75.7-3.2-6.5-5.7-8.8-5.7-5.3 0 1.1.4 2.3.9 2.9 1.2 1.2 11.3 23.5 16.1 35.4 2 5.2 9 25.5 15.5 45 14.4 43.8 29 82 31.4 82 2.1 0 3.4-4.5 10-35.5 8.8-41.5 12.1-59.6 16.6-90.8 1.9-13.7 4.1-26.3 4.9-28.1 1.4-3.3 5.4-7.2 10.6-10.3 1.6-.9 3.2-2.3 3.4-3 1-2.4-1.2-2.2-5.5.6zM673 382.3c0 .7 1.4 2.6 3 4.2 2.3 2.2 3.3 2.6 4.2 1.7.9-.9.5-1.9-1.7-4.2-3-3.1-5.5-3.9-5.5-1.7zM189.5 404c-.7 1.2 7.3 10 9.1 10 2.5 0 1.5-2.3-2.8-6.7-4.4-4.5-5.3-4.9-6.3-3.3zM1001.2 430.3c-2.9 3-4.1 5.7-2.6 5.7 1.3 0 8.4-6.5 8.4-7.7 0-2.3-2.5-1.4-5.8 2z"/>
</svg>
