<svg xmlns="http://www.w3.org/2000/svg" version="1" viewBox="0 0 1061 660">
  <path d="M858 6.7c-7.6 7-18.2 20.1-33 40.8-6.3 8.8-15.6 21.6-20.8 28.4-17.6 23.2-38.8 56.3-48.7 76.1-3.5 7-5.1 9.1-7 9.6-1.4.4-2.7.5-2.9.3-.2-.2.2-3.8 1-7.9 3.3-18.5-.7-48.9-7.4-56.3-4.1-4.5-9.2-6.1-19.7-6.2-9.3 0-10.5.2-16.7 3.3-17 8.4-31.1 31.9-37.3 62.4l-.5 2.7-4.8-3c-6.7-4.3-19.2-7.9-29.2-8.6-16.2-1-33.2 5-44.5 15.7l-6 5.7-22.5.6c-40.7 1-68.1 7.6-100.8 24.4-25.3 12.9-47.4 29.3-70.2 52.2-12 12-33.6 37.3-40 46.8l-1.5 2.2-8-5.9c-15.8-11.6-25.7-18.2-42.7-28.4-45.8-27.3-91.5-56.5-114.8-73.5-20.8-15.1-41-32.9-70.5-62.1C81 97.7 72.4 90.2 69.6 91.3c-3.8 1.5-8.4 18.4-9.1 33.9-1.2 23.7-2.6 63.7-3.5 98.7-1.6 61.2-3.2 82.1-12 154.6-6.9 56.5-7.1 58.3-14.5 109C21 553.6 17 577.2 9.9 609.9c-7.1 32.8-9.4 49.8-6.7 48.9.7-.3 2.1-6.1 3.4-14.4 1.2-7.6 4-22.5 6.2-32.9 7.8-36.4 10.9-54.3 19.1-111.5 3.3-22.8 6.9-47.6 8-55 1.1-7.4 2.7-19.8 3.6-27.5.9-7.7 3.3-28.2 5.5-45.5 7.4-60 9.5-87.2 11-142.5 1.6-60.7 4-112.5 5.5-119.6C67 102.8 69.8 95 70.9 95c2.5 0 10.8 7.6 32.1 29.3 37.7 38.4 60.7 57.4 105.5 87.2 26.4 17.6 49.7 32.1 86.5 54 11.3 6.8 26.6 16.8 34 22.4 14.6 10.9 17.8 12.5 19.4 9.6.6-1 4.4-6.1 8.5-11.4 23.1-30 50.6-56.5 76.1-73.5 35-23.4 70.3-35.7 109.8-38.6 13.2-.9 35.2-1.4 35.2-.7 0 .2-1.3 2.8-3 5.8-3.4 6.2-3.8 10.9-1.5 18.6 4.5 15.1 21.5 27.7 44.7 33.3 4.4 1 8.2 2.1 8.5 2.4.2.2-1.1.9-3 1.5-5 1.7-16.4 9.9-22.1 16l-4.8 5.2.4 7.4c.3 6.4.7 7.8 3.4 11.2 1.8 2.2 5.9 5.3 9.8 7.3 6.1 3.1 7.7 3.5 16.7 3.8 8.6.4 15-.4 20-2.3 1.2-.4 1.3 1.6 1.1 11.4-.7 24.9 7.9 42 25.5 50.7 9.6 4.7 19.6 5.7 29.9 2.9 15-4.1 32.2-20.4 40.1-38.3 6.9-15.6 7.1-37.8.5-53.3l-2-4.6 8.9-.5c16.2-1 25.5-7.5 33-23.3 5.2-11.1 7.2-21.5 6.7-36.4-.3-11.4-.4-12.1-3.3-16.3-5.9-8.4-18.7-14.8-29.7-14.8-1.5 0-2.8-.3-2.8-.7 0-1.1 10.7-20.7 16.6-30.4 9.6-15.9 21.9-34.1 33-49 5.9-7.9 15.9-21.6 22.2-30.4 6.3-8.8 14.5-19.8 18.2-24.5 8.1-10.1 20.6-22.4 21.9-21.5 6.2 3.8 70.2 130.2 92.1 182 2.3 5.5 7.3 16.8 11 25 8 17.8 23.5 60.2 44.5 121.5 8.4 24.5 17.9 51.7 21 60.5 10.4 29.6 20.5 65.6 20.5 73.8 0 3.4 1.7 5.4 3.1 4 .9-.9.7-3.7-1.1-12-4.8-23.2-10.5-41.9-24.2-80.3-4.4-12.4-12.6-36.2-18.3-53-16.6-49.4-34.6-97.9-45.5-122.5-5.6-12.7-13.8-31.3-18.3-41.5-15.8-35.8-67.1-136.8-79-155.3-4.8-7.5-6.6-7.5-14.7 0zM728.6 95.5c7.5 2.2 10 5.5 12.9 16.8 3.2 12.5 4 24.8 2.6 36.7-1.5 12.3-2.4 13.8-9 16.3-14.4 5.3-31 19.6-36.7 31.4-2.5 5.4-3.3 6.2-5.7 6.2-1.6.1-3.7-.4-4.7-.9-1.6-.9-1.7-1.5-.9-3.9.6-1.6 1.9-3.7 3-4.7 1.8-1.6 2.6-4.4 1.3-4.4-2 0-4.8 2.7-6.3 6.1l-1.8 4-.7-6.2c-1.2-10.1-3.4-15-13.1-28.5-1.4-2-1.4-3.1.3-11.6 3.2-15.6 10-30.5 19-42.1 10.8-13.7 25.7-19.4 39.8-15.2zm-87.3 57.6c9.2 2.3 19.6 6.9 21.8 9.6 1.1 1.4 1.3 4.5 1.1 14l-.3 12.2-7.9-3.4c-19.5-8.3-46.3-14.4-63.7-14.5-3.5 0-6.3-.4-6.3-.9 0-2 10.6-10.5 16.4-13.1 13.1-5.9 25.9-7.2 38.9-3.9zm129.1 13.5c5.6 1.9 13.7 9 16.1 14.1 2.5 5.3 1.6 26.8-1.5 36.8-4.7 14.8-11.9 24.5-21.3 28.6-7.2 3.1-23.2 3.4-24.9.5-2.4-4.2-8.1-9.5-13.3-12.2-3.6-1.9-4.9-3.1-3.9-3.4.8-.3 3.2-4.8 5.3-10 3.7-9.2 20-45 24.2-53.2l2.1-4.1 6.2.7c3.5.3 8.4 1.3 11 2.2zm-32.8 22.6c-6.2 13.4-12.3 27-13.6 30.3-1.3 3.3-2.7 6.4-3.1 6.9-1.1 1.2-11.8-8.7-14.7-13.5-2.2-3.7-2.2-3.8-.3-4.4 2.2-.7 9.6-6.3 18.5-14 5.8-5 15.1-18 17.6-24.5 1.5-3.8 2.7-5 5.1-5 1.3 0-1 5.7-9.5 24.2zm-1.8-14c-5.4 10.3-27.5 30.8-33.1 30.8-4.6 0-4.9-1.3-1.8-7.6 3-5.8 14.1-18 20.6-22.5 5.2-3.6 17-9 17.3-7.9.2.5-1.1 3.8-3 7.2zm-58.6 8c1 2.7 1.8 6.9 1.8 9.3v4.5l-4-2c-7.4-3.8-8-4.9-8-14.9 0-12.6.5-13.3 4.8-6.9 2 2.9 4.4 7.4 5.4 10zm-58.3-5.7c24.1 4.9 43.7 12.9 51.6 21.2 4 4.2 4.7 4.5 8 4 3.5-.6 3.5-.5 3.5 3 0 2-.5 5.2-1.1 7.3-1 3.4-.9 4.2 1.5 8.3 1.7 2.9 2.3 4.8 1.6 5.2-2.1 1.3-.9 2.5 2.4 2.5 1.9 0 4.7.5 6.1 1 1.5.6 4.4 1.1 6.6 1.2 2.4.1 3.9.6 3.9 1.4 0 2.2 9.3 9.6 16.5 13 3.8 1.9 9.6 4 12.7 4.6 5.3 1.1 5.9 1.5 7.6 5.2 4.8 10.3 5.7 14.7 5.6 27.6 0 10.7-.4 13.6-2.7 20.5-3.4 10.3-9.2 19.1-18.6 28.5-17.1 16.9-35.9 19.5-54.4 7.7-6.6-4.3-12.3-12.2-15.7-22-2.4-7-3.7-21.3-2.6-30.1l.7-5.6 5.7-2.9c6.8-3.5 10.4-7 13.1-13.1 2.5-5.4 2.8-14.2.6-16-3.7-3.1-14.4 9.2-19.8 23-3.3 8.3-5.6 9.3-21.7 9.4-10 .1-12.2-.2-16.5-2.2-9.1-4.2-13.5-10.1-13.5-18.2 0-5.1 2.7-8.9 11-15.4 7.1-5.6 19.5-11.7 24.2-11.9 2.8-.1 12.6.7 35.6 2.8 4.6.5 5.2.3 5.2-1.4 0-1.5-1.5-2.5-5.7-4.1-5.1-1.9-7.5-2.1-23.2-1.9-21.4.2-31.6-1.7-45.6-8.5-14.3-6.9-23.1-16.2-25.5-27.1-1.4-6.4-.7-9.9 3.1-16l3-4.8 12.1.6c6.6.4 17.7 1.8 24.7 3.2zm79.1 35.3c7.1 5.4 7.5 5.9 7.5 9.7v4l-6.5-.3c-8.8-.4-10.2-.9-9.5-3.3.4-1.3.1-2.1-1.2-2.6-2.5-.9-3.3-2.3-3.3-5.7 0-2.6 3.3-7.7 4.9-7.6.3.1 4 2.7 8.1 5.8zm18.4 15.1c3.4 3.6 3.4 3.6-2.7 1.5-3.2-1.1-4.7-2.1-4.7-3.3 0-4 2.5-3.4 7.4 1.8zm.9 6.3c6.2 2.4 9.4 4.3 13.2 8l5 5-4-.7c-5.7-.9-17.2-6.8-22.5-11.5-4-3.5-4.2-3.9-2.2-4 1.2 0 6 1.4 10.5 3.2zm-47.5 23.7c-.7 6.8-4.8 13.4-10.4 16.7-2.5 1.5-4.8 2.4-5.1 2.1-1-1.1 6.3-15 10.2-19.5 4.8-5.5 5.9-5.4 5.3.7z"/>
  <path d="M867 83.4c-1.7 2.2-3.5 9.4-9 36.6-4.5 22.8-10.3 45.2-19.9 78-2.6 8.8-3.6 13.8-3 14.5.7.6 1.3.5 1.9-.5 1.5-2.4 18.7-64.6 21.4-77.5 1.4-6.6 3.9-18.8 5.6-27 4.2-21.5 4.6-22.5 7.6-22.5 3.9 0 12.1 9.1 18.1 20 12.6 23.1 29.6 73.6 43.2 128.5 4.1 16.2 6.6 22.4 8.3 20.7.8-.8.6-2.3-.6-5.3-1-2.3-2.8-9-4.2-14.8-10.2-43-28.1-98-39.9-122.6-6.7-14-12.7-22.9-17.8-26.6-4.4-3.2-9.7-3.8-11.7-1.5zM113.3 180.2c-.4.7-1.1 22.9-1.5 49.3-.4 26.4-1.2 56.1-1.8 66-.6 9.9-1.3 33.6-1.7 52.7-.5 30.5-.4 34.8.9 34.8s1.6-4.5 2.1-32.3c.4-17.7 1.1-40.3 1.7-50.2.6-9.9 1.4-40.4 1.8-67.7.4-27.3 1-49.9 1.4-50.3.3-.3 2.3.2 4.5 1.3 11.7 6 29.2 22.5 63.6 59.7 13.2 14.3 32.2 34.8 42.2 45.5 10.1 10.7 19.3 20.7 20.4 22.2 2.1 2.6 19.1 17.8 28.4 25.3 3.3 2.6 5.1 3.5 5.8 2.8.8-.8-2.8-4.4-11.8-12.1-12.3-10.6-30.5-29-54.3-55.2-53.4-58.6-74-79.2-89.4-89.2-6-3.8-10.8-4.9-12.3-2.6zM783 380.1c-23.6 3-58.3 14.4-80 26.1-16.1 8.8-28.7 18.2-42.8 32.1-19.8 19.5-35.3 44.6-37.7 60.9-.6 3.9-.4 4.8.7 4.8 1 0 1.9-2 2.7-5.8 3.9-17.5 20.2-42.8 38.8-60.2 24.4-22.9 55.1-39.3 91.5-48.9 21.9-5.8 27.7-6.6 49.3-6.5 18.1.1 20.9.4 30 2.7 13.6 3.6 27.1 10.5 34.4 17.6 11.5 11.4 22.6 31.2 29.8 53.3 2.1 6.6 4.3 11.8 5.1 11.8 1.9 0 1.5-2.8-2.3-13.9-10.6-31.7-26.7-54.4-45-63.8-10.4-5.3-21.8-8.8-33-10.2-10.3-1.2-31.9-1.3-41.5 0z"/>
  <path d="M819.6 400.7c-.2 1-1.8 9.2-3.5 18.3-12.1 65.8-13.1 70.2-17.2 75.4-1.1 1.5-3 2.6-4.1 2.6-2.9 0-20.1-17.1-30.2-30-8.6-11-13.3-17.7-26-37.3-4.2-6.5-8.2-11.7-9.1-11.7-2.1 0-1.9.7 1.9 6.4 1.9 2.8 7.6 11.6 12.8 19.6 5.2 8 13.2 19.2 17.8 25 8.5 10.7 28.1 30.6 31.2 31.6 3.3 1 7.1-1.9 10-7.6 3.6-7.1 5-12.7 9.9-40 2.2-12.4 5.3-29.2 6.9-37.5 1.5-8.2 2.6-15.3 2.4-15.7-.9-1.4-2.2-.9-2.8.9zM368.4 445.1c-22.8 3.8-49.5 18.9-69.9 39.4-26.4 26.4-49.4 68-56 101.2-.9 4.5-1.5 9.2-1.3 10.5.7 4.8 2.2 1.5 4.4-9.5 3-14.6 7-26 14.9-42.2 22.7-46.5 56.8-80 94.1-92.4 26.9-9 63.1-5.7 86.9 8 12.2 6.9 33.3 25.8 42.2 37.6 2.9 4 5.8 7.3 6.3 7.3 2.2 0 .7-3.1-5-10.8-7.6-10.2-29.8-29.9-41.3-36.5-9.1-5.3-26.2-11.1-37.2-12.7-8.3-1.1-30.9-1.1-38.1.1z"/>
  <path d="M395.4 454.7c-3.1 10.6-1 33.8 6.5 74.7 3.6 19.2 5 30.6 3.7 30.6-.2 0-11.8-7.6-25.7-16.9-14-9.2-32.1-21-40.4-26.1-8.2-5.1-16.9-10.6-19.2-12.1-4.3-3-7.8-3.8-7.1-1.7.3.7 11.2 8.1 24.4 16.3 13.1 8.3 33.4 21.4 44.9 29.2 25.2 16.8 24.9 16.7 26.4 14.9 1.6-1.9.1-14.4-5.3-43.7-6.6-35.6-7.7-55.6-4-68.7.5-1.6.2-2.2-1-2.2-1 0-2.1 1.9-3.2 5.7z"/>
</svg>
