<svg xmlns="http://www.w3.org/2000/svg" version="1" viewBox="0 0 618 351">
  <path d="M499.3 4.2c-3.3 3.7-6.6 10-16.1 30.8-18.7 40.9-31 63.7-43.5 81.3-3.6 5-5.4 6.7-7.2 6.7-1.3 0-5.4 1.6-9.1 3.5-3.7 1.9-6.9 3.4-7.1 3.2-.2-.2 1.5-4.8 3.8-10.2 7.9-18.9 11.1-37.1 9-51.8-1.4-9.6-4.4-16.9-8.4-20.3-2.7-2.3-3.8-2.6-8.7-2.2-10.9.8-21.2 7.5-28.2 18.3-5.8 8.9-8.1 17.5-7.6 28.8l.3 9.3H369c-8.4 0-12.8 1.5-18.2 6.3-4.8 4.2-7 9.2-6.9 15.5v5.2l-8.3 1.2c-11.4 1.7-37.9 8.3-50.6 12.7-20.9 7.2-43.4 19.7-57.3 31.8-4.7 4-6.1 4.7-6.8 3.6-5.1-7.7-9.2-15.3-15.5-29.1-9.5-20.7-14-28.8-28.4-52.3-22.1-36-38.4-65.3-40.3-72.4-.3-1.1-1.2-2.1-2-2.1-2.6 0-5.3 4.5-10.2 17.2-2.6 6.8-7.4 17.5-10.5 23.8-3.2 6.3-7 14.4-8.4 18-1.5 3.6-5.8 13-9.6 21-9.5 19.9-18.5 39.8-22.7 50-1.9 4.7-7.4 17.7-12.3 29-10.6 24.8-19.4 49-33.4 92-5.8 17.9-14 41.5-18.2 52.5C.1 350.1.4 349 2.3 349c2.6 0 14.7-32.4 33.1-89 14.1-43.2 20.4-59.4 42.6-110.5 8.9-20.4 17.7-40 20.7-46 1.7-3.3 5.7-11.9 8.8-19 3.2-7.2 8.1-17.7 11-23.5 2.8-5.8 7.3-16 10-22.8 2.6-6.8 4.9-12.1 5.1-11.9.2.2 2.7 5 5.4 10.7 5.8 11.8 19.6 35.7 34.4 59.8 14.7 23.9 19.7 32.9 28.7 52.4 8.1 17.7 17.4 34.4 19.6 35.2.7.3 2-.7 2.9-2.2 3.9-6.4 23.3-19.7 41.4-28.4 5.8-2.8 16.4-7 23.5-9.3 13.7-4.5 40.1-10.9 49.7-12l5.6-.7 2.1 4.7c3.5 8 9.1 13.4 20.1 19.4l5 2.8-4.2 1.2c-17.4 5.2-26.9 18.1-23.9 32.2 1.5 7.1 5.2 11.6 12 14.8 4.8 2.2 6.9 2.6 15.1 2.6 9.3 0 9.7-.1 17.7-4.3 9.8-5.2 18.3-13.4 23.9-23l3.9-6.6.6 4.9c2.7 21.6 15.4 37.4 30 37.5 16.4.1 30.9-12 30.9-25.5 0-4.4-4.2-12.6-8.6-16.9-4.8-4.7-16.9-11.9-24.7-14.8-5.5-2-5.7-2.2-4.4-4.2 2.9-4.5 5.7-13.8 5.7-19.2 0-6.2-1.1-8.9-4.7-12l-2.4-2.1 7-10.4c10.4-15.6 19.5-32.1 30.6-56 13.5-29 23.8-49.3 25-49.3.5-.1 3.7 8.4 7.1 18.9 8.2 25.5 14.8 43 22.9 61 15.7 35 19.1 44.4 41.1 112.5 16.7 51.8 28 83.4 34.2 95.8 4.9 9.8 6.4 11.8 8.2 10.7 1.5-.9 1.2-4.2-.5-4.8-5-2-24.6-55.9-52.5-144.7-6.1-19.3-16.9-47.1-26.8-69-8.1-18-14.1-33.9-24.2-64.3C506.8 11 503.3 2 502.6 2c-.7 0-2.2 1-3.3 2.2zm-80.7 45.3c5.5 3.8 9.1 22.2 7.3 36.7-1.4 11.6-4.2 21.1-10.5 36.2l-5.7 13.7-3.8-.6c-2.2-.4-5.4-.1-7.4.5-4.3 1.4-5.5.7-3.1-1.9 1-1.1 1.5-2.5 1.1-3-1-1.8.5-3.4 2-2.1 1.8 1.5 3.1-.6 1.4-2.6-.9-1.1-.8-1.8.6-3.4 2.4-2.7 1-4.5-2.1-2.5-2.3 1.5-2.4 1.4-7.8-6.3-3-4.3-6.6-8.3-7.9-8.9-1.7-.8-2.6-2.2-3-5-3.6-21.6 6.5-42.7 23.9-49.8 6.7-2.8 12-3.2 15-1zm-42.8 56.1c1.2.2 2.2 1 2.2 1.7 0 2.3 6.6 15.1 10.2 19.8 2.5 3.3 3.4 5.3 3.1 7l-.4 2.5-6.8-3.4c-6.5-3.2-7.4-3.4-21.7-4l-14.9-.7-.3-3.4c-.6-5.7.6-9.6 4-13 6.6-6.7 13.9-8.7 24.6-6.5zm14.7 13.8c2.3 3.3 4.1 6.6 3.8 7.3-.4 1-.9 1.1-1.9.2-2-1.6-7.1-9.9-8.9-14.4l-1.6-4 2.1 2.5c1.2 1.4 4.1 5.2 6.5 8.4zm34.5 13.3c-7.5 6.9-10.8 8.9-12.3 7.4-.9-1-.4-2 2.4-4.5 3.9-3.3 13.9-8.9 14.7-8.1.2.2-1.9 2.6-4.8 5.2zm15.4-4.1c3.8 3.7 3.3 13.3-1.3 23l-2.9 6.3-6.4.3-6.3.3-.3 4.9c-.3 4.8.6 6.5 3.4 6.6.6 0 3.2-1.9 5.8-4.1 4.7-4.2 4.7-4.2 8.9-2.9 5.6 1.6 12.9 5.4 20 10.2 17.5 11.8 17.6 29.3.3 37.8-11.5 5.6-19.9 5-28-2.1-8.3-7.4-13.6-21.7-13.6-37.1 0-5.4-.3-6.8-1.5-6.8-.9 0-1.8.8-2.1 1.7-.3 1-2.4 5.6-4.7 10.2-7.8 16-24.1 28.7-38.2 29.8-11 .9-21.3-3.5-25.1-11-2-3.8-2.1-13.5-.1-17.4 1.9-3.5 9.3-10.5 13.6-12.8 9.1-4.7 30.2-7.1 38-4.4 4.5 1.6 10.2-.2 13.5-4.2 2-2.4 2.6-4.2 2.6-7.9 0-4.6.2-4.9 5.3-8.8 2.8-2.3 7.2-6.1 9.7-8.6 4.7-4.9 6.9-5.6 9.4-3zm-57.6 7.5l6.6 3.4 1.1 6c.6 3.3 1.5 7.1 1.9 8.3l.8 2.4-9.9-.4c-8.4-.3-10.6-.7-15.5-3.2-7.5-3.8-12.5-8-15.9-13.5-4.8-7.5-4.8-7.5 10.7-6.9 13 .5 13.9.7 20.2 3.9zm24.2 5.8c0 2.4-.5 2.9-3.2 3.5-2.4.5-3.9.1-5.7-1.2-4.8-3.6-3.6-4.9 4.7-5.1 4-.1 4.2 0 4.2 2.8zm-2.3 6.5c2.6-.6 5.6-1.4 6.6-1.9 1.4-.6 1.7-.2 1.7 2.9 0 2.7-.7 4.4-2.6 6.1-2.8 2.6-5.8 3.2-6.9 1.5-.3-.6-1.7-1-3.1-1-2.6 0-6.4-4.9-6.4-8.2 0-1.6.2-1.6 2.9 0 2.4 1.4 3.7 1.5 7.8.6zm25.8 15.1c-3.8 3.1-4.5 3.1-4.5 0 0-2.2.4-2.5 3.8-2.5l3.7.1-3 2.4z"/>
  <path d="M497.1 90.3c-.6.8-2.8 7.6-5 15.3-7.7 27.1-9 32.4-7.9 33 1.7 1.1 2.5-.7 6.3-15.1 5.7-21.7 8.5-30.5 9.7-30.5 4.5 0 12.7 10.9 22.3 29.7 3.7 7.3 7.4 13.3 8.1 13.3.8 0 1.4-.4 1.4-.9s-3.7-8-8.2-16.6c-8.3-16-15.1-25-20.9-28-3.5-1.8-4.4-1.9-5.8-.2zM131.1 96.1c-2.8 3-5.1 12.4-14.7 59.9-10.7 52.5-10 48.4-8.3 47.8 2-.7 3.2-5.7 10-39.8 10.4-52.6 13.6-66 15.9-66 1.2 0 8.7 8.7 13.2 15.4 5.5 8 10.7 19.4 16.3 36.1 6 17.7 9.8 25 14.9 28.7 3.9 2.8 7.6 3.7 7.6 1.8 0-.5-1.2-1.6-2.7-2.4-6.9-3.6-9.5-8.2-16.4-28.5-8.4-24.4-15.6-37.9-27.3-50.4-2.4-2.6-4.9-4.7-5.5-4.7-.5 0-1.9.9-3 2.1zM421 266.1c-11.7 2-26.1 11.4-33.3 21.8-5.8 8.4-11.7 18.3-11.7 19.7 0 3.4 2.9.7 7.3-7 10-17.1 18.8-25.1 32.6-29.7 5.4-1.8 7.9-2.1 17-1.6 6.2.3 12.6 1.2 15.4 2.2 9.8 3.5 29.1 18.3 33.4 25.6 1.8 3 4.3 3.9 4.3 1.6 0-4.3-15.4-18.7-27.5-25.8-10.3-6-25.7-8.9-37.5-6.8zM261.5 274.2c-.4 1-4.3 1.3-14.8 1.3-17.3.1-22.6 1.3-39.2 9.5-14.7 7.2-26.1 15.7-38.8 28.9-11.1 11.6-13.4 14.8-12 16.2.6.6 3.7-2.2 8.9-8.2 25.9-30.1 60.4-47 88.7-43.5 3.2.4 5.5 1.1 5.3 1.5-.3.4-1.2 7.4-2.1 15.7-1.4 13.5-3.8 26-5.1 27.3-.2.3-1.2-.6-2.1-1.8-8.5-12.2-30.9-34-35-34.1-2.1 0-1.5 2.8.8 4 4.7 2.6 18.4 15.7 26.4 25.5 4.8 5.8 9 10.5 9.4 10.5 1.8 0 4.3-4.2 5.6-9.2.8-2.9 2.1-12.1 3.1-20.3.9-8.3 1.9-15.5 2.3-16.2 1-1.9 9.6 2.8 19 10.4 10.3 8.4 21.1 16.3 22.3 16.3 2.5 0 .1-3.4-5.1-7.2-3.3-2.4-10.2-7.6-15.3-11.7-5.1-4.1-11.6-8.5-14.4-9.8-4.2-1.9-5.1-2.7-4.7-4.3.6-2.3-2.4-2.9-3.2-.8z"/>
  <path d="M437.7 273.8c-.4.5-2 6-3.7 12.2-3.4 12.4-6.5 20.3-8.6 22.1-1.1.9-2.5-1.2-7.4-11.7-3.3-7.1-6.5-14-7.2-15.3-1.5-2.8-3.8-3.9-3.8-1.9 0 1.3 12.3 28.3 14.3 31.5 1.3 2.1 4.6 1.5 7.2-1.3 3.8-4.1 12.7-33.6 10.8-35.5-.7-.7-1.3-.7-1.6-.1z"/>
</svg>
